<?xml version="1.0" encoding="UTF-8"?>
<svg width="67px" height="38px" viewBox="0 0 67 38" version="1.1" xmlns="http://www.w3.org/2000/svg" xmlns:xlink="http://www.w3.org/1999/xlink">
  <g id="Page-1" stroke="none" stroke-width="1" fill="#000" fill-rule="evenodd">
    <g class="bird-fill-logo-svg" transform="translate(-20.000000, -5146.436445)">
      <path d="M67.6308592,5170.89945 C67.4027264,5171.75494 66.9546085,5172.52897 66.3435387,5173.14004 C65.4473029,5174.03627 64.2170237,5174.59031 62.8645142,5174.59031 C61.5120129,5174.59031 60.2817256,5174.03627 59.3854898,5173.14004 C58.489254,5172.2438 57.9352173,5171.01351 57.9352173,5169.66101 C57.9352173,5168.30851 58.489254,5167.07822 59.3854898,5166.18199 C60.2817256,5165.28575 61.5120129,5164.73172 62.8645142,5164.73172 L82.6713255,5164.73172 L83.5920041,5164.73172 C85.2704093,5164.57691 86.6310582,5163.18367 86.736977,5161.50527 L62.8645142,5161.50527 C60.6157771,5161.50527 58.5788776,5162.42594 57.1041623,5163.90066 C55.629447,5165.37538 54.7087684,5167.42042 54.7087684,5169.66101 C54.7087684,5171.90975 55.629447,5173.94665 57.1041623,5175.42136 C58.5788776,5176.89608 60.6239247,5177.81676 62.8645142,5177.81676 C65.1132513,5177.81676 67.1501509,5176.89608 68.6248662,5175.42136 C69.8225631,5174.22367 70.6536263,5172.65118 70.9224889,5170.89945 L67.6308592,5170.89945 L67.6308592,5170.89945 Z M59.3528994,5169.43288 L74.914812,5169.43288 L75.8354906,5169.43288 C77.5138958,5169.27808 78.8745447,5167.88484 78.9804635,5166.20643 L62.220854,5166.20643 C61.5283081,5166.33679 60.8846478,5166.67899 60.3794968,5167.18414 C59.7684269,5167.78706 59.4099326,5168.57738 59.3528994,5169.43288 L59.3528994,5169.43288 Z M39.1061178,5170.89945 C39.3342506,5171.75494 39.7823685,5172.52897 40.3934383,5173.14004 C41.2896741,5174.03627 42.5199615,5174.59031 43.8724628,5174.59031 C45.2249641,5174.59031 46.4552514,5174.03627 47.3514872,5173.14004 C48.247723,5172.2438 48.8017597,5171.01351 48.8017597,5169.66101 C48.8017597,5168.30851 48.247723,5167.07822 47.3514872,5166.18199 C46.4552514,5165.28575 45.2249641,5164.73172 43.8724628,5164.73172 L24.0656515,5164.73172 L23.1449729,5164.73172 C21.4665677,5164.57691 20.1059188,5163.18367 20,5161.50527 L43.8806104,5161.50527 C46.1293475,5161.50527 48.166247,5162.42594 49.6409623,5163.90066 C51.1156776,5165.37538 52.0363562,5167.42042 52.0363562,5169.66101 C52.0363562,5171.90975 51.1238252,5173.94665 49.6409623,5175.42136 C48.166247,5176.89608 46.1211999,5177.81676 43.8806104,5177.81676 C41.6318733,5177.81676 39.5949737,5176.89608 38.1202584,5175.42136 C36.9225615,5174.22367 36.0915065,5172.65118 35.8226357,5170.89945 L39.1061178,5170.89945 L39.1061178,5170.89945 Z M47.3840776,5169.43288 L31.822165,5169.43288 L30.9014864,5169.43288 C29.2230812,5169.27808 27.8624323,5167.88484 27.7565135,5166.20643 L44.5242706,5166.20643 C45.2168165,5166.33679 45.8604767,5166.67899 46.3656278,5167.18414 C46.9604025,5167.78706 47.3270444,5168.57738 47.3840776,5169.43288 L47.3840776,5169.43288 Z M53.3644147,5150.05789 C57.5033946,5150.05789 61.2512898,5151.7363 63.96444,5154.44945 C65.4228601,5155.90787 66.579819,5157.6596 67.3375456,5159.60688 L64.6406988,5159.60688 C64.0296289,5158.33585 63.1985739,5157.17889 62.2127145,5156.19303 C59.9476822,5153.928 56.8190045,5152.52661 53.3644228,5152.52661 C49.9098412,5152.52661 46.7811635,5153.928 44.5161312,5156.19303 C43.5302718,5157.17889 42.7073644,5158.33585 42.0881469,5159.60688 L39.3912919,5159.60688 C40.1490185,5157.6596 41.3059775,5155.89972 42.7643976,5154.44945 C45.4856872,5151.7363 49.2335824,5150.05789 53.3644147,5150.05789 L53.3644147,5150.05789 Z M53.3644147,5146.4648 C58.489254,5146.4648 63.133385,5148.54244 66.498343,5151.9074 C68.6248662,5154.02577 70.229943,5156.65745 71.1343264,5159.60688 L69.4722164,5159.60688 C68.6248662,5157.09742 67.2153317,5154.85683 65.3821221,5153.02362 C62.3023299,5149.94382 58.0574313,5148.04543 53.3644147,5148.04543 C48.6713981,5148.04543 44.4264995,5149.95197 41.3467073,5153.02362 C39.5134977,5154.84868 38.1039632,5157.09742 37.256613,5159.60688 L35.594503,5159.60688 C36.4907388,5156.66559 38.1039632,5154.03392 40.2223388,5151.9074 C43.5954444,5148.55059 48.2395754,5146.4648 53.3644147,5146.4648 L53.3644147,5146.4648 Z M65.0725133,5179.47072 C61.8786548,5182.0698 57.8048557,5183.61785 53.3725623,5183.61785 C48.9402689,5183.61785 44.8664698,5182.06166 41.6726113,5179.47072 C42.3895999,5179.63367 43.1310313,5179.71515 43.8806104,5179.71515 C44.1657763,5179.71515 44.4509422,5179.707 44.7279606,5179.68256 C47.2618636,5181.18172 50.2194418,5182.04536 53.3725623,5182.04536 C56.5256828,5182.04536 59.483261,5181.18172 62.017164,5179.68256 C62.3023299,5179.70699 62.5793483,5179.71515 62.8645142,5179.71515 C63.6140933,5179.71515 64.3473771,5179.62552 65.0725133,5179.47072 L65.0725133,5179.47072 Z" id="Fill-1"></path>
    </g>
  </g>
</svg>
