<?xml version="1.0" encoding="UTF-8" standalone="no"?>
<svg width="64" height="64" viewBox="0 0 238.125 238.125" xmlns="http://www.w3.org/2000/svg">

  <g transform="translate(10, -10)">
    <g transform="scale(6)">
      <path fill="#8f001d"
            d="M16.6312 4.76853C16.3898 4.75049 16.0785 4.75 15.6088 4.75H14.381C13.9667 4.75 13.631 4.41421 13.631 4C13.631 3.58579 13.9667 3.25 14.381 3.25H15.6357H15.6357C16.0714 3.24999 16.4391 3.24998 16.743 3.2727C17.0624 3.29657 17.365 3.34825 17.6605 3.47926C18.1166 3.68148 18.5069 4.00766 18.7852 4.42132C18.966 4.69002 19.0682 4.979 19.1449 5.28811C19.2178 5.58157 19.2784 5.94079 19.3499 6.36477L19.3499 6.36484L20.3586 12.3459C20.3953 12.5635 20.3343 12.7863 20.1918 12.9548C20.0493 13.1234 19.8398 13.2206 19.619 13.2206C17.1319 13.2206 15.131 15.2107 15.131 17.6471C15.131 18.0613 14.7952 18.3971 14.381 18.3971H7.42003C7.08088 19.7531 5.84304 20.75 4.38095 20.75C2.66017 20.75 1.25 19.3691 1.25 17.6471C1.25 15.925 2.66017 14.5441 4.38095 14.5441C5.84304 14.5441 7.08088 15.541 7.42003 16.8971H13.6784C14.0147 14.2579 16.1026 12.1673 18.7426 11.7837L17.8754 6.64136C17.7981 6.18308 17.7466 5.8808 17.6892 5.64959C17.6341 5.42779 17.5857 5.32551 17.5407 5.25874C17.4211 5.08096 17.2522 4.93904 17.0526 4.85054C16.9761 4.81665 16.8634 4.78588 16.6312 4.76853Z"/>
      <path fill="#8f001d" fill-rule="evenodd" clip-rule="evenodd"
            d="M16.4883 17.6469C16.4883 15.9248 17.8984 14.5439 19.6192 14.5439C21.34 14.5439 22.7502 15.9248 22.7502 17.6469C22.7502 19.3689 21.34 20.7498 19.6192 20.7498C17.8984 20.7498 16.4883 19.3689 16.4883 17.6469Z"/>
    </g>
  </g>

  <g transform="translate(50, 80)">
    <g transform="scale(6)">
      <path fill="#8f001d"
            d="M19 4 A 1.0001 1.0001 0 0 0 18.058594 5.3359375L19.367188 9L10.414062 9L9.7949219 8L11 8 A 1.0001 1.0001 0 1 0 11 6L8.1425781 6 A 1.0001 1.0001 0 0 0 8.0234375 5.9882812 A 1.0001 1.0001 0 0 0 7.8398438 6L7 6 A 1.0001 1.0001 0 1 0 7 8L7.4433594 8L8.8125 10.210938L7.4863281 13.195312C7.0096806 13.072551 6.5137723 13 6 13C2.6981361 13 0 15.698136 0 19C0 22.301864 2.6981361 25 6 25C8.9603849 25 11.427922 22.82834 11.908203 20L15.416016 20 A 1.0007938 1.0007938 0 0 0 15.433594 20 A 1.0001 1.0001 0 0 0 15.441406 20 A 1.0007938 1.0007938 0 0 0 15.632812 19.980469 A 1.0001 1.0001 0 0 0 15.644531 19.976562 A 1.0007938 1.0007938 0 0 0 15.728516 19.955078 A 1.0001 1.0001 0 0 0 15.808594 19.927734 A 1.0007938 1.0007938 0 0 0 15.822266 19.921875 A 1.0001 1.0001 0 0 0 15.832031 19.917969 A 1.0007938 1.0007938 0 0 0 15.912109 19.876953 A 1.0001 1.0001 0 0 0 15.972656 19.841797 A 1.0007938 1.0007938 0 0 0 15.984375 19.833984 A 1.0001 1.0001 0 0 0 16.138672 19.708984 A 1.0007938 1.0007938 0 0 0 16.150391 19.697266 A 1.0001 1.0001 0 0 0 16.166016 19.677734 A 1.0007938 1.0007938 0 0 0 16.216797 19.621094 A 1.0001 1.0001 0 0 0 16.265625 19.554688 A 1.0007938 1.0007938 0 0 0 16.267578 19.552734 A 1.0001 1.0001 0 0 0 16.316406 19.46875 A 1.0007938 1.0007938 0 0 0 16.324219 19.453125 A 1.0001 1.0001 0 0 0 16.332031 19.439453L20.238281 11.441406L21.070312 13.771484C19.241926 14.802189 18 16.760917 18 19C18 22.301864 20.698136 25 24 25C27.301864 25 30 22.301864 30 19C30 15.698136 27.301864 13 24 13C23.642302 13 23.29399 13.036989 22.953125 13.097656L20.417969 6L22 6 A 1.0001 1.0001 0 1 0 22 4L19 4 z M 11.654297 11L18.226562 11L15.330078 16.933594L11.654297 11 z M 10.085938 12.267578L13.636719 18L11.908203 18C11.626418 16.340588 10.664706 14.906428 9.3144531 14.005859L10.085938 12.267578 z M 6 15C6.224635 15 6.4400877 15.029439 6.6542969 15.064453L5.0859375 18.59375 A 1.0001 1.0001 0 0 0 6 20L9.8613281 20C9.4188032 21.72841 7.8729191 23 6 23C3.7790164 23 2 21.220984 2 19C2 16.779016 3.7790164 15 6 15 z M 24 15C26.220984 15 28 16.779016 28 19C28 21.220984 26.220984 23 24 23C21.779016 23 20 21.220984 20 19C20 17.613879 20.693063 16.400396 21.753906 15.683594L23.058594 19.335938 A 1.0001 1.0001 0 1 0 24.941406 18.664062L23.644531 15.035156C23.763685 15.024634 23.877955 15 24 15 z M 8.4824219 15.878906C9.1509504 16.410155 9.6423248 17.144619 9.8613281 18L7.5390625 18L8.4824219 15.878906 z"/>
    </g>
  </g>

  <g transform="translate(140, 0)">
    <g transform="scale(.4)">
      <path style="fill:#8f001d;fill-opacity:1;fill-rule:nonzero;stroke:none;stroke-width:.11775"
            d="M119.065 30.58c-.842-.028-1.337.42-1.73.818l-5.047 5.018c-.94.931-.78 2.577-.043 3.863l1.784 3.164-.353.251c-1.22-.912-2.628-1.322-4.277-1.322-3.819 0-6.916 2.963-6.916 6.622 0 3.651 3.1 6.607 6.918 6.607a6.978 6.978 0 0 0 4.85-1.96l.72.272c-.397 6.76-6.042 12.125-12.997 12.125-6.11 0-11.313-4.211-12.715-9.815l.614-.409a6.436 6.436 0 0 0 4.781.662c3.418-.85 5.528-4.189 4.71-7.458-.818-3.273-4.25-5.226-7.668-4.373-1.477.366-2.65 1.036-3.535 2.131l-.371-.16.9-3.218c.174-.658.219-1.363.074-1.978-.136-.616-.448-1.152-.974-1.464l-5.666-3.378a2.067 2.067 0 0 0-1.73-.28c-.714.183-1.144.596-1.405 1.06l-3.391 5.632c-.21.32-.29.696-.286 1.07.012.838.458 1.714 1.105 2.384l2.302 2.43-.253.315c-1.29-.557-2.65-.595-4.118-.23-3.426.85-5.532 4.186-4.71 7.459.81 3.27 4.244 5.23 7.658 4.376a6.468 6.468 0 0 0 3.915-2.82l.728-.04a12.246 12.246 0 0 1 .657 3.979c0 6.348-4.814 11.482-10.76 11.482-4.942 0-9.124-3.54-10.371-8.371l.32-.775a5.642 5.642 0 0 0 3.239-.352c2.825-1.197 4.187-4.36 3.034-7.069-1.154-2.708-4.374-3.928-7.21-2.736-1.212.526-2.137 1.262-2.745 2.326l-.353-.085.334-2.892c.14-1.189-.308-2.348-1.247-2.855l-4.456-2.435c-.585-.32-.923-.322-1.138-.209l-.272.156a.341.341 0 0 0-.147.157c-.198.449.315 1.58.315 1.58l3.5 8.257-.408.705c-.316 1.527-.209 2.863.294 4.024.487 1.126 1.362 2.085 2.617 2.864l.812.158.953 2.24 3.372 5.712 1.455 3.23-.133 2.022.756 1.775 1.647.818c16.062-6.383 34.053-9.949 53.058-9.96 19.008-.005 37.009 3.577 53.056 9.96l1.655-.82.758-1.773v-1.794l5.65-11.41.81-.158c1.25-.779 2.125-1.738 2.616-2.864.499-1.161.598-2.497.294-4.024l-.414-.705 3.506-8.256s.51-1.132.304-1.58a.267.267 0 0 0-.137-.158l-.277-.156c-.21-.113-.548-.11-1.137.21l-4.451 2.434c-.94.507-1.388 1.666-1.256 2.855l.337 2.892-.347.087c-.608-1.064-1.534-1.802-2.753-2.328-2.83-1.192-6.057.028-7.207 2.736-1.153 2.709.21 5.872 3.04 7.069a5.639 5.639 0 0 0 3.238.352l.32.775c-1.243 4.832-5.428 8.37-10.365 8.37-5.947 0-10.766-5.133-10.766-11.481 0-1.4.225-2.737.662-3.976l.723.037a6.469 6.469 0 0 0 3.91 2.822c3.413.854 6.845-1.107 7.663-4.376.818-3.273-1.291-6.61-4.705-7.46-1.48-.366-2.826-.328-4.128.23l-.253-.315 2.307-2.43c.643-.67 1.084-1.547 1.1-2.384a1.95 1.95 0 0 0-.28-1.071l-3.394-5.632c-.277-.463-.692-.877-1.412-1.06-.714-.19-1.284-.008-1.736.28l-5.65 3.378c-.523.312-.84.848-.975 1.464-.14.616-.108 1.32.075 1.979l.9 3.216-.377.161c-.88-1.095-2.058-1.764-3.538-2.13-3.41-.854-6.853 1.099-7.664 4.372-.822 3.27 1.286 6.609 4.703 7.458a6.46 6.46 0 0 0 4.792-.661l.604.408c-1.387 5.604-6.596 9.815-12.71 9.815-6.948 0-12.599-5.364-12.992-12.125l.718-.272a6.994 6.994 0 0 0 4.857 1.96c3.811 0 6.907-2.955 6.907-6.607 0-3.659-3.096-6.621-6.907-6.621-1.656 0-3.066.41-4.286 1.322l-.352-.252 1.794-3.164c.733-1.286.892-2.932-.043-3.863l-5.057-5.018c-.39-.397-.884-.8-1.725-.819zm.02 46.75c-18.778 0-36.756 3.432-53.439 10.19l-.475.189.005 41.523c0 36.275 18.529 63.313 53.595 78.183l.291.132.29-.132c35.066-14.87 53.6-41.908 53.6-78.183l-.006-41.528-.46-.195c-16.733-6.757-34.7-10.18-53.4-10.18zm0 3.543c17.641 0 34.621 3.155 50.47 9.386l.005 39.163c0 43.332-27.37 64.334-50.49 74.35-23.123-10.012-50.508-31.018-50.508-74.35l-.005-39.158c15.825-6.235 32.817-9.39 50.528-9.39zM79.623 92.352v.3l.71 1.174-.024 6.28-6.117-.02-1.127-.728h-.301v3.987h.3l1.128-.737h6.103l.038 6.27-.71 1.169v.294h4.373v-.294l-.71-1.17-.048-6.27h6.099l1.137.738h.291v-3.987h-.29l-1.138.729h-6.099l.048-6.261.71-1.175v-.3zm14.536 14.352c-3.031 0-5.736 1.85-5.736 5.669 0 6.375 8.863 5.81 8.863 9.914 0 2.073-1.774 3.258-3.773 3.258-1.208 0-2.203-.347-2.983-.9-1.09-.756-1.547-1.729-1.664-2.473h-.595v5.204c1.185.312 2.822.467 4.68.467 4.346 0 7.488-2.474 7.488-6.16 0-6.624-9.361-6.023-9.361-9.967 0-1.823 1.306-2.726 3.068-2.726 2.073 0 3.452 1.143 4.154 2.304h.588v-3.407c-1.216-.678-2.89-1.183-4.729-1.183zm9.743 12.138v.62l.737 1.679v16.096l-.737 1.223v.3h4.42v-.3l-.733-1.223v-15.468c0-.215.052-.455.27-.553.398-.206.916-.227 2.085-.227 2.136 0 4.28 1.3 4.28 4.203 0 1.56-.886 2.846-1.93 3.474-.83.506-1.848.799-2.931.908v1.527c1.208 0 2.88-.277 3.815-.643 1.668-.67 4.149-2.26 4.149-5.888 0-3.916-2.946-5.728-6.64-5.728zm20.322 12.79c-5.6 0-9.406 4.38-9.406 9.781 0 5.023 3.64 9.156 8.335 9.709 1.006 2.825 2.405 5.13 4.295 6.517 2.396 1.738 4.69 1.73 6.541 1.57v-1.498c-1.196-.16-2.694-.657-3.567-1.308-1.259-.943-2.776-2.977-4.12-5.471 4.18-.974 7.326-4.85 7.326-9.519 0-5.4-4.21-9.78-9.404-9.78zm-.371 2.49c2.457.167 4.867 2.005 6.013 4.866 1.512 3.815.194 7.997-2.95 9.357-3.13 1.36-6.918-.643-8.438-4.454-1.512-3.81-.189-8 2.948-9.356a5.185 5.185 0 0 1 2.427-.414zm14.008 12.738v.623l.734 1.694v16.073l-.734 1.233v.313h4.424v-.313l-.732-1.233v-6.735h3.562c1.528 3.051 3.12 5.702 4.972 7.32 1.442 1.266 3.212 1.755 5.094 1.775.37 0 .733-.022 1.104-.057v-1.5c-1.247-.23-2.323-.785-2.978-1.37-2.61-2.28-3.825-4.434-5.789-7.439 2.046-.643 3.768-2.516 3.768-5.279 0-3.702-2.94-5.105-6.646-5.105zm6.032 2.174c1.866 0 4.285.689 4.285 3.572 0 1.578-.666 2.574-2.026 3.44l-4.62.032v-6.273c0-.218.062-.447.273-.552.4-.203.903-.22 2.088-.22z"/>
    </g>
  </g>

</svg>
