<svg xmlns="http://www.w3.org/2000/svg" style="display:none">

  <!-- Lime -->
  <symbol id="lime" width="24px" height="24px" viewBox="0 0 704 704" xmlns="http://www.w3.org/2000/svg">
    <title>GreenText_Clear-Bg_Vector_H</title>
    <desc>Created with Sketch.</desc>
    <defs></defs>
    <g id="GreenText_Clear-Bg_Vector_H" stroke="none" stroke-width="1" fill="none" fill-rule="evenodd">
      <g id="Page-1" transform="translate(16.000000, 16.000000)">
        <path d="M335.490942,671.40948 C150.213309,671.40948 0,521.09988 0,335.70348 C0,150.29028 150.213309,-0.00252 335.490942,-0.00252 C520.776969,-0.00252 670.981883,150.29028 670.981883,335.70348 C670.981883,521.09988 520.776969,671.40948 335.490942,671.40948" id="Fill-1" fill="currentColor"></path>
        <path d="M631.507867,335.70096 C631.507867,172.10256 498.98202,39.48336 335.488423,39.48336 C172.011616,39.48336 39.4857686,172.10256 39.4857686,335.70096 C39.4857686,499.28256 172.011616,631.91856 335.488423,631.91856 C498.98202,631.91856 631.507867,499.28256 631.507867,335.70096" id="Fill-3" fill="#fff"></path>
        <path d="M352.189517,117.29256 L352.189517,265.22496 C352.189517,283.69656 372.16871,295.22976 388.14367,285.98976 L516.178396,212.03616 C534.058935,201.70416 537.391598,177.52056 523.397769,162.32496 C488.568495,124.57536 442.532405,97.35936 390.569715,85.94376 C370.817177,81.60096 352.189517,97.04016 352.189517,117.29256" id="Fill-5" fill="currentColor"></path>
        <path d="M390.572233,585.44892 C442.526529,574.03332 488.571013,546.82572 523.391892,509.06772 C537.394117,493.87212 534.061453,469.70532 516.180915,459.36492 L388.146188,385.40292 C372.171229,376.17972 352.192036,387.70452 352.192036,406.16772 L352.192036,554.10852 C352.192036,574.36092 370.8113,589.78332 390.572233,585.44892" id="Fill-7" fill="currentColor"></path>
        <path d="M138.078048,240.93384 C120.222694,230.61024 97.6243803,239.75784 91.46273,259.48104 C83.9579408,283.54704 79.8697614,309.15864 79.8697614,335.70264 C79.8697614,362.25504 83.9579408,387.84144 91.46273,411.91584 C97.6243803,431.63064 120.222694,440.78664 138.078048,430.45464 L266.163143,356.46744 C282.129708,347.22744 282.129708,324.15264 266.163143,314.92944 L138.078048,240.93384 Z" id="Fill-9" fill="currentColor"></path>
        <path d="M579.540979,259.48104 C573.370935,239.75784 550.781015,230.61864 532.908872,240.93384 L404.823778,314.92944 C388.848818,324.15264 388.848818,347.22744 404.823778,356.47584 L532.908872,430.46304 C550.781015,440.78664 573.370935,431.63064 579.515796,411.91584 C587.045769,387.84144 591.117159,362.25504 591.117159,335.70264 C591.117159,309.15864 587.045769,283.54704 579.540979,259.48104" id="Fill-11" fill="currentColor"></path>
        <path d="M154.817758,212.02608 L282.860879,285.99648 C298.819049,295.22808 318.806637,283.69488 318.806637,265.22328 L318.806637,117.28248 C318.806637,97.04688 300.170583,81.60768 280.418045,85.94208 C228.455354,97.36608 182.402475,124.57368 147.60678,162.32328 C133.587767,177.51888 136.93722,201.70248 154.817758,212.02608" id="Fill-13" fill="currentColor"></path>
        <path d="M282.852484,385.40376 L154.817758,459.36576 C136.93722,469.70616 133.587767,493.87296 147.60678,509.06856 C182.402475,546.82656 228.44696,574.03416 280.418045,585.44976 C300.170583,589.78416 318.806637,574.36176 318.806637,554.10096 L318.806637,406.16856 C318.806637,387.70536 298.844233,376.18056 282.852484,385.40376" id="Fill-15" fill="currentColor"></path>
        <path d="M366.25722,335.70096 C366.25722,352.69416 352.490045,366.48696 335.490942,366.48696 C318.500233,366.48696 304.724664,352.69416 304.724664,335.70096 C304.724664,318.70776 318.500233,304.90656 335.490942,304.90656 C352.490045,304.90656 366.25722,318.70776 366.25722,335.70096" id="Fill-17" fill="currentColor"></path>
        <path d="M1047.7542,125.71692 C1066.86036,125.71692 1082.38201,141.23172 1082.38201,160.36692 C1082.38201,179.50212 1066.86036,195.02532 1047.7542,195.02532 C1028.62287,195.02532 1013.1264,179.50212 1013.1264,160.36692 C1013.1264,141.23172 1028.62287,125.71692 1047.7542,125.71692" id="Fill-19" fill="currentColor"></path>
      </g>
    </g>
  </symbol>

  <!-- Dott -->
  <symbol id="dott" width="24" height="24" viewBox="0 0 84 28">
    <g fill="currentColor">
      <path d="M62.195 21.471c-2.674-.367-2.526-3.206-2.526-5.372v-4.667h4.63a.662.662 0 0 0 .661-.663V5.8a.662.662 0 0 0-.661-.663h-4.63V.663A.663.663 0 0 0 59.01 0h-5.544a.659.659 0 0 0-.66.66v14.67c0 2.808-.114 5.898 1.276 8.45 1.517 2.786 4.688 4.032 7.77 4.054h4.432a.662.662 0 0 0 .661-.662V22.28a.663.663 0 0 0-.665-.663c-1.339.01-2.817.029-4.084-.146zM79.226 21.471c-2.673-.367-2.526-3.206-2.526-5.372v-4.667h4.63a.662.662 0 0 0 .661-.663V5.8a.662.662 0 0 0-.66-.663H76.7V.663A.663.663 0 0 0 76.04 0h-5.542a.66.66 0 0 0-.662.662v14.667c0 2.809-.113 5.899 1.277 8.451 1.517 2.786 4.688 4.032 7.77 4.054h4.431a.662.662 0 0 0 .662-.662V22.28a.663.663 0 0 0-.665-.663c-1.34.01-2.817.029-4.085-.146z"/>
      <path fill-rule="nonzero" d="M37.855 5.12c-6.305 0-11.416 5.121-11.416 11.438s5.111 11.438 11.416 11.438c6.304 0 11.415-5.12 11.415-11.438a11.45 11.45 0 0 0-3.344-8.087 11.404 11.404 0 0 0-8.071-3.35zm0 16.869a5.425 5.425 0 0 1-5.42-5.43c0-3 2.426-5.43 5.42-5.43a5.425 5.425 0 0 1 5.42 5.43c0 1.44-.572 2.82-1.588 3.84a5.414 5.414 0 0 1-3.832 1.59zM16.015.663V6.13C8.27 2.68-.566 8.953.028 17.4c.564 8.004 9.365 13.017 16.504 9.395a11.54 11.54 0 0 0 6.263-10.212V.663A.662.662 0 0 0 22.133 0h-5.456a.662.662 0 0 0-.662.663zm-4.554 21.326a5.425 5.425 0 0 1-5.42-5.43c0-3 2.427-5.43 5.42-5.43a5.425 5.425 0 0 1 5.42 5.43 5.48 5.48 0 0 1-5.42 5.43z"/>
    </g>
  </symbol>

  <!-- Bird -->
  <symbol id="bird" width="24px" height="24px" viewBox="0 0 67 38" xmlns="http://www.w3.org/2000/svg">
    <g id="Page-1" stroke="none" stroke-width="1" fill="currentColor" fill-rule="evenodd">
      <g class="bird-fill-logo-svg" transform="translate(-20.000000, -5146.436445)">
        <path d="M67.6308592,5170.89945 C67.4027264,5171.75494 66.9546085,5172.52897 66.3435387,5173.14004 C65.4473029,5174.03627 64.2170237,5174.59031 62.8645142,5174.59031 C61.5120129,5174.59031 60.2817256,5174.03627 59.3854898,5173.14004 C58.489254,5172.2438 57.9352173,5171.01351 57.9352173,5169.66101 C57.9352173,5168.30851 58.489254,5167.07822 59.3854898,5166.18199 C60.2817256,5165.28575 61.5120129,5164.73172 62.8645142,5164.73172 L82.6713255,5164.73172 L83.5920041,5164.73172 C85.2704093,5164.57691 86.6310582,5163.18367 86.736977,5161.50527 L62.8645142,5161.50527 C60.6157771,5161.50527 58.5788776,5162.42594 57.1041623,5163.90066 C55.629447,5165.37538 54.7087684,5167.42042 54.7087684,5169.66101 C54.7087684,5171.90975 55.629447,5173.94665 57.1041623,5175.42136 C58.5788776,5176.89608 60.6239247,5177.81676 62.8645142,5177.81676 C65.1132513,5177.81676 67.1501509,5176.89608 68.6248662,5175.42136 C69.8225631,5174.22367 70.6536263,5172.65118 70.9224889,5170.89945 L67.6308592,5170.89945 L67.6308592,5170.89945 Z M59.3528994,5169.43288 L74.914812,5169.43288 L75.8354906,5169.43288 C77.5138958,5169.27808 78.8745447,5167.88484 78.9804635,5166.20643 L62.220854,5166.20643 C61.5283081,5166.33679 60.8846478,5166.67899 60.3794968,5167.18414 C59.7684269,5167.78706 59.4099326,5168.57738 59.3528994,5169.43288 L59.3528994,5169.43288 Z M39.1061178,5170.89945 C39.3342506,5171.75494 39.7823685,5172.52897 40.3934383,5173.14004 C41.2896741,5174.03627 42.5199615,5174.59031 43.8724628,5174.59031 C45.2249641,5174.59031 46.4552514,5174.03627 47.3514872,5173.14004 C48.247723,5172.2438 48.8017597,5171.01351 48.8017597,5169.66101 C48.8017597,5168.30851 48.247723,5167.07822 47.3514872,5166.18199 C46.4552514,5165.28575 45.2249641,5164.73172 43.8724628,5164.73172 L24.0656515,5164.73172 L23.1449729,5164.73172 C21.4665677,5164.57691 20.1059188,5163.18367 20,5161.50527 L43.8806104,5161.50527 C46.1293475,5161.50527 48.166247,5162.42594 49.6409623,5163.90066 C51.1156776,5165.37538 52.0363562,5167.42042 52.0363562,5169.66101 C52.0363562,5171.90975 51.1238252,5173.94665 49.6409623,5175.42136 C48.166247,5176.89608 46.1211999,5177.81676 43.8806104,5177.81676 C41.6318733,5177.81676 39.5949737,5176.89608 38.1202584,5175.42136 C36.9225615,5174.22367 36.0915065,5172.65118 35.8226357,5170.89945 L39.1061178,5170.89945 L39.1061178,5170.89945 Z M47.3840776,5169.43288 L31.822165,5169.43288 L30.9014864,5169.43288 C29.2230812,5169.27808 27.8624323,5167.88484 27.7565135,5166.20643 L44.5242706,5166.20643 C45.2168165,5166.33679 45.8604767,5166.67899 46.3656278,5167.18414 C46.9604025,5167.78706 47.3270444,5168.57738 47.3840776,5169.43288 L47.3840776,5169.43288 Z M53.3644147,5150.05789 C57.5033946,5150.05789 61.2512898,5151.7363 63.96444,5154.44945 C65.4228601,5155.90787 66.579819,5157.6596 67.3375456,5159.60688 L64.6406988,5159.60688 C64.0296289,5158.33585 63.1985739,5157.17889 62.2127145,5156.19303 C59.9476822,5153.928 56.8190045,5152.52661 53.3644228,5152.52661 C49.9098412,5152.52661 46.7811635,5153.928 44.5161312,5156.19303 C43.5302718,5157.17889 42.7073644,5158.33585 42.0881469,5159.60688 L39.3912919,5159.60688 C40.1490185,5157.6596 41.3059775,5155.89972 42.7643976,5154.44945 C45.4856872,5151.7363 49.2335824,5150.05789 53.3644147,5150.05789 L53.3644147,5150.05789 Z M53.3644147,5146.4648 C58.489254,5146.4648 63.133385,5148.54244 66.498343,5151.9074 C68.6248662,5154.02577 70.229943,5156.65745 71.1343264,5159.60688 L69.4722164,5159.60688 C68.6248662,5157.09742 67.2153317,5154.85683 65.3821221,5153.02362 C62.3023299,5149.94382 58.0574313,5148.04543 53.3644147,5148.04543 C48.6713981,5148.04543 44.4264995,5149.95197 41.3467073,5153.02362 C39.5134977,5154.84868 38.1039632,5157.09742 37.256613,5159.60688 L35.594503,5159.60688 C36.4907388,5156.66559 38.1039632,5154.03392 40.2223388,5151.9074 C43.5954444,5148.55059 48.2395754,5146.4648 53.3644147,5146.4648 L53.3644147,5146.4648 Z M65.0725133,5179.47072 C61.8786548,5182.0698 57.8048557,5183.61785 53.3725623,5183.61785 C48.9402689,5183.61785 44.8664698,5182.06166 41.6726113,5179.47072 C42.3895999,5179.63367 43.1310313,5179.71515 43.8806104,5179.71515 C44.1657763,5179.71515 44.4509422,5179.707 44.7279606,5179.68256 C47.2618636,5181.18172 50.2194418,5182.04536 53.3725623,5182.04536 C56.5256828,5182.04536 59.483261,5181.18172 62.017164,5179.68256 C62.3023299,5179.70699 62.5793483,5179.71515 62.8645142,5179.71515 C63.6140933,5179.71515 64.3473771,5179.62552 65.0725133,5179.47072 L65.0725133,5179.47072 Z" id="Fill-1"></path>
      </g>
    </g>
  </symbol>

</svg>
